<svg width="56" height="57" viewBox="0 0 56 57" fill="none" xmlns="http://www.w3.org/2000/svg">
<path d="M56 28.041C56 43.505 43.464 56.041 28 56.041C12.536 56.041 0 43.505 0 28.041C0 12.577 12.536 0.0410156 28 0.0410156C43.464 0.0410156 56 12.577 56 28.041Z" fill="url(#paint0_linear_8199_2119)"/>
<path d="M40.1381 19.4309C39.4904 18.9145 38.5466 19.0209 38.0301 19.6686L24.9464 36.0774C24.7604 36.3107 24.4128 36.3302 24.2019 36.1193L17.8649 29.7823C17.2791 29.1965 16.3294 29.1965 15.7436 29.7823C15.1578 30.3681 15.1578 31.3178 15.7436 31.9036L22.0806 38.2406C23.5572 39.7172 25.9901 39.5805 27.292 37.9477L40.3757 21.5389C40.8922 20.8912 40.7858 19.9474 40.1381 19.4309Z" fill="white"/>
<defs>
<linearGradient id="paint0_linear_8199_2119" x1="28" y1="56.041" x2="28" y2="0.0410142" gradientUnits="userSpaceOnUse">
<stop stop-color="#7DBA6E"/>
<stop offset="0.9531" stop-color="#C6E99A"/>
</linearGradient>
</defs>
</svg>
