<svg width="20" height="17" viewBox="0 0 20 17" fill="none" xmlns="http://www.w3.org/2000/svg">
<path d="M10 13.6118C10.5523 13.6118 11 13.1641 11 12.6118C11 12.0595 10.5523 11.6118 10 11.6118C9.44771 11.6118 9 12.0595 9 12.6118C9 13.1641 9.44771 13.6118 10 13.6118Z" fill="#141C24"/>
<path d="M11 8.61182C11 9.16409 10.5523 9.61182 10 9.61182C9.44771 9.61182 9 9.16409 9 8.61182C9 8.05954 9.44771 7.61182 10 7.61182C10.5523 7.61182 11 8.05954 11 8.61182Z" fill="#141C24"/>
<path d="M10 5.61182C10.5523 5.61182 11 5.16409 11 4.61182C11 4.05954 10.5523 3.61182 10 3.61182C9.44771 3.61182 9 4.05954 9 4.61182C9 5.16409 9.44771 5.61182 10 5.61182Z" fill="#141C24"/>
<path fill-rule="evenodd" clip-rule="evenodd" d="M0 10.6118V14.6118C0 15.7164 0.895432 16.6118 2 16.6118H18C19.1046 16.6118 20 15.7164 20 14.6118V10.6118C18.8954 10.6118 18 9.71637 18 8.61182C18 7.50723 18.8954 6.61182 20 6.61182V2.61182C20 1.50723 19.1046 0.611816 18 0.611816H2C0.895432 0.611816 0 1.50726 0 2.61182V6.61182C1.10457 6.61182 2 7.50723 2 8.61182C2 9.7164 1.10457 10.6118 0 10.6118ZM18.5 14.6118C18.5 14.888 18.2761 15.1118 18 15.1118H2C1.72385 15.1118 1.5 14.888 1.5 14.6118V11.775C2.68246 11.2133 3.5 10.008 3.5 8.61182C3.5 7.21561 2.68248 6.01038 1.5 5.44864V2.61182C1.5 2.33566 1.72385 2.11182 2 2.11182H18C18.2761 2.11182 18.5 2.33566 18.5 2.61182V5.44864C17.3175 6.01038 16.5 7.21561 16.5 8.61182C16.5 10.008 17.3175 11.2133 18.5 11.775V14.6118Z" fill="#141C24"/>
</svg>
