<svg width="16" height="17" viewBox="0 0 16 17" fill="none" xmlns="http://www.w3.org/2000/svg">
<path fill-rule="evenodd" clip-rule="evenodd" d="M12 4.61182C12 6.82096 10.2091 8.61182 8 8.61182C5.79086 8.61182 4 6.82096 4 4.61182C4 2.40268 5.79086 0.611816 8 0.611816C10.2091 0.611816 12 2.40268 12 4.61182ZM10.5 4.61182C10.5 5.99253 9.38071 7.11182 8 7.11182C6.61929 7.11182 5.5 5.99253 5.5 4.61182C5.5 3.2311 6.61929 2.11182 8 2.11182C9.38071 2.11182 10.5 3.2311 10.5 4.61182Z" fill="#141C24"/>
<path fill-rule="evenodd" clip-rule="evenodd" d="M0 14.3838V16.6118H16V14.3838C16 12.7164 14.9657 11.224 13.4045 10.6385L13.2669 10.5869C9.87107 9.31347 6.12893 9.31347 2.73315 10.5869L2.59551 10.6385C1.03429 11.224 0 12.7164 0 14.3838ZM3.25984 11.9914C6.31603 10.8453 9.68397 10.8453 12.7402 11.9914L12.8778 12.043C13.8536 12.4089 14.5 13.3417 14.5 14.3838V15.1118H1.5V14.3838C1.5 13.3417 2.14643 12.4089 3.12219 12.043L3.25984 11.9914Z" fill="#141C24"/>
</svg>
